<svg width="24" height="25" viewBox="0 0 24 25" fill="none" xmlns="http://www.w3.org/2000/svg">
<path d="M16.0821 16.2779C15.3607 14.5183 14.9999 12.6638 14.9999 10.7143C14.9999 9.48668 14.643 8.51207 13.9289 7.79026C13.2143 7.06849 12.2321 6.63309 10.9821 6.48435C11.0415 6.35051 11.0712 6.21287 11.0712 6.07148C11.0712 5.77384 10.9671 5.52065 10.7588 5.31249C10.5506 5.1041 10.2976 5 9.99993 5C9.70245 5 9.44942 5.1041 9.24102 5.31249C9.03267 5.52081 8.92857 5.77384 8.92857 6.07148C8.92857 6.21287 8.95828 6.35039 9.01789 6.48435C7.76789 6.63325 6.7857 7.06845 6.07143 7.79026C5.3572 8.51203 5.00011 9.48664 5.00011 10.7143C5.00011 12.6638 4.63934 14.5183 3.91753 16.2779C3.19576 18.0376 2.12811 19.5165 0.714355 20.7144C0.714355 21.1012 0.855747 21.4361 1.13849 21.7188C1.42119 22.0014 1.75597 22.143 2.143 22.143H7.14299C7.14299 22.9317 7.4219 23.6051 7.97996 24.163C8.53806 24.7209 9.21147 25 10.0001 25C10.7888 25 11.4622 24.7209 12.0201 24.163C12.578 23.6051 12.8571 22.9317 12.8571 22.143H17.8571C18.244 22.143 18.5791 22.0017 18.8615 21.7188C19.1443 21.4361 19.2857 21.1012 19.2857 20.7144C17.8722 19.5165 16.8044 18.0376 16.0821 16.2779ZM10.0001 24.107C9.45696 24.107 8.99362 23.9157 8.61049 23.5325C8.22736 23.1492 8.03574 22.6859 8.03574 22.1427C8.03574 22.0236 8.09531 21.9641 8.21431 21.9641C8.33338 21.9641 8.39295 22.0236 8.39295 22.1427C8.39295 22.5817 8.55099 22.9593 8.8672 23.2756C9.18348 23.592 9.56102 23.75 10 23.75C10.1191 23.75 10.1789 23.8098 10.1789 23.9286C10.179 24.0477 10.1192 24.107 10.0001 24.107ZM2.75685 20.7144C3.97714 19.3676 4.89409 17.8368 5.5079 16.1218C6.1217 14.4068 6.42876 12.6043 6.42876 10.7145C6.42876 8.80971 7.61915 7.85738 10.0001 7.85738C12.381 7.85738 13.5715 8.80971 13.5715 10.7145C13.5715 12.6043 13.8784 14.4068 14.4922 16.1218C15.1058 17.8369 16.0233 19.3676 17.2434 20.7144H2.75685Z" fill="black"/>
<circle cx="15.5" cy="8.5" r="8" fill="#F12727" stroke="white"/>
<path d="M16.5596 12H15.6514V5.97949L13.8301 6.64844V5.82812L16.418 4.85645H16.5596V12Z" fill="white"/>
</svg>
