<svg width="14" height="14" viewBox="0 0 14 14" fill="none" xmlns="http://www.w3.org/2000/svg">
<path d="M13.0359 12.3641C13.2214 12.5496 13.2214 12.8504 13.0359 13.0359C12.8504 13.2214 12.5496 13.2214 12.3641 13.0359L10.0841 10.7559C9.89864 10.5704 9.89864 10.2696 10.0841 10.0841C10.2696 9.89864 10.5704 9.89864 10.7559 10.0841L13.0359 12.3641ZM5.86001 10.895C3.07926 10.895 0.825012 8.64077 0.825012 5.86001C0.825012 3.07926 3.07926 0.825012 5.86001 0.825012C8.64077 0.825012 10.895 3.07926 10.895 5.86001C10.895 8.64077 8.64077 10.895 5.86001 10.895ZM5.86001 9.94501C8.1161 9.94501 9.94501 8.1161 9.94501 5.86001C9.94501 3.60393 8.1161 1.77501 5.86001 1.77501C3.60393 1.77501 1.77501 3.60393 1.77501 5.86001C1.77501 8.1161 3.60393 9.94501 5.86001 9.94501ZM3.51668 5.48001C3.51668 5.6549 3.3749 5.79668 3.20001 5.79668C3.02512 5.79668 2.88335 5.6549 2.88335 5.48001C2.88335 4.04591 4.04591 2.88335 5.48001 2.88335C5.6549 2.88335 5.79668 3.02512 5.79668 3.20001C5.79668 3.3749 5.6549 3.51668 5.48001 3.51668C4.39569 3.51668 3.51668 4.39569 3.51668 5.48001Z" fill="#303031" fill-opacity="0.75"/>
</svg>
