<svg width="14" height="14" viewBox="0 0 14 14" fill="none" xmlns="http://www.w3.org/2000/svg">
<path d="M8.89953 4.76779H0.284078C0.127832 4.76779 0 4.89562 0 5.05187V13.6673C0 13.8235 0.127832 13.9514 0.284078 13.9514H8.89953C9.05574 13.9514 9.18357 13.8236 9.18357 13.6673V5.05187C9.18357 4.89562 9.0557 4.76779 8.89953 4.76779Z" fill="#626263"/>
<path d="M13.7621 0.0486145H4.91763C4.78667 0.0486145 4.67969 0.155709 4.67969 0.286554C4.67969 0.286554 4.67969 2.3236 4.67969 4.03467C4.67969 4.18686 4.83263 4.19095 4.83263 4.19095H9.66764C9.78514 4.19095 9.85794 4.30289 9.85794 4.39459V9.20737C9.85794 9.20737 9.86342 9.36896 10.017 9.36896C11.7273 9.36896 13.7622 9.36896 13.7622 9.36896C13.893 9.36896 14.0001 9.26194 14.0001 9.13106V0.286518C14 0.155709 13.8929 0.0486145 13.7621 0.0486145Z" fill="#626263"/>
</svg>
