<svg width="14" height="14" viewBox="0 0 14 14" fill="none" xmlns="http://www.w3.org/2000/svg">
<g clip-path="url(#clip0)">
<path d="M1.74336 1.25979L1.74319 1.25979C0.698092 1.26097 -0.148817 2.10788 -0.15 3.15298V3.15315L-0.15 12.2393L-0.15 12.2395C-0.148817 13.2846 0.698092 14.1315 1.74319 14.1327H1.74336L11.5268 14.1327L11.5269 14.1327C12.572 14.1315 13.4189 13.2846 13.4201 12.2395V12.2393V9.14337C13.4201 8.86794 13.1969 8.6447 12.9214 8.6447C12.646 8.6447 12.4228 8.86794 12.4228 9.14337V12.239C12.4222 12.7338 12.0213 13.1348 11.5266 13.1352H1.7435C1.24881 13.1348 0.847981 12.7339 0.847345 12.2391V3.15323C0.847981 2.65865 1.24875 2.25777 1.74344 2.25714H4.83919C5.11462 2.25714 5.33787 2.03389 5.33787 1.75846C5.33787 1.48321 5.11466 1.25979 4.83919 1.25979L1.74336 1.25979Z" fill="#626263" stroke="#626263" stroke-width="0.3"/>
<path d="M3.64054 9.79975C3.59239 9.97303 3.64137 10.1585 3.76826 10.2856L3.76842 10.2857C3.89552 10.4126 4.08092 10.4616 4.2541 10.4136L4.25414 10.4136L7.20737 9.59547C7.29033 9.5725 7.36593 9.52846 7.42689 9.4675L7.32082 9.36143L7.42689 9.4675L13.6473 3.24683L13.6474 3.24671C14.3176 2.57499 14.3176 1.48757 13.6474 0.815841L13.6473 0.815723L13.2381 0.406578C12.5668 -0.264766 11.4784 -0.264766 10.807 0.406578L4.5865 6.62711C4.52554 6.68808 4.4815 6.76367 4.45852 6.84664L3.64054 9.79975ZM3.64054 9.79975L3.78506 9.83991L3.64051 9.79987L3.64054 9.79975ZM12.942 2.54178L12.6784 2.80537L11.2485 1.37549L11.5123 1.11177L11.5124 1.11175C11.7941 0.829969 12.251 0.829969 12.5328 1.11175L12.5329 1.11177L12.942 1.52075C12.942 1.52079 12.942 1.52083 12.9421 1.52087C13.2234 1.80312 13.2233 2.25974 12.942 2.54178ZM7.09405 8.38957L5.66442 6.95982L10.5433 2.08079L11.9731 3.51055L7.09405 8.38957ZM4.8369 9.21723L5.20018 7.90595L6.14809 8.85395L4.8369 9.21723Z" fill="#626263" stroke="#626263" stroke-width="0.3"/>
</g>
<defs>
<clipPath id="clip0">
<rect width="14" height="14" fill="white"/>
</clipPath>
</defs>
</svg>
