<svg width="309" height="61" viewBox="0 0 309 61" fill="none" xmlns="http://www.w3.org/2000/svg">
<path d="M12.0923 37.8131L12.0767 38.813C12.0819 38.8131 12.0871 38.8131 12.0923 38.8131L12.0923 37.8131ZM35.9335 39.5398L35.9667 40.5393L35.9335 39.5398ZM86.867 5.00001L86.8654 6.00001H86.867V5.00001ZM103.122 21.1186L102.212 21.5323C102.225 21.5617 102.24 21.5904 102.256 21.6183L103.122 21.1186ZM157.307 56.2339L157.34 55.2345C157.323 55.2339 157.306 55.2338 157.29 55.2341L157.307 56.2339ZM188.734 43.5693L188.079 42.8137C188.069 42.8224 188.059 42.8314 188.049 42.8406L188.734 43.5693ZM-52.2347 68.6437C-48.5366 64.2471 -39.7357 56.6575 -28.1766 50.2257C-16.6234 43.7972 -2.42327 38.5864 12.0767 38.813L12.1079 36.8132C-2.8685 36.5792 -17.4216 41.9526 -29.149 48.478C-40.8705 55.0001 -49.8775 62.7342 -53.7653 67.3563L-52.2347 68.6437ZM12.0923 38.8131C15.0913 38.8131 18.9537 39.3015 23.1736 39.771C27.3534 40.2359 31.8441 40.6762 35.9667 40.5393L35.9003 38.5404C31.9388 38.6719 27.5793 38.2487 23.3948 37.7832C19.2504 37.3222 15.2342 36.8131 12.0923 36.8131L12.0923 38.8131ZM35.9667 40.5393C41.9949 40.3392 56.062 36.5037 64.9482 22.8144L63.2707 21.7254C54.8179 34.747 41.4314 38.3568 35.9003 38.5404L35.9667 40.5393ZM64.9482 22.8144C73.5228 9.60525 81.7137 5.99213 86.8654 6.00001L86.8685 4.00002C80.764 3.99068 72.0351 8.2238 63.2707 21.7254L64.9482 22.8144ZM86.867 6.00001C89.6656 6 96.2247 8.356 102.212 21.5323L104.033 20.7049C97.8826 7.16996 90.7772 4 86.867 4.00001V6.00001ZM102.256 21.6183C105.745 27.666 112.653 36.6605 122.091 44.0959C131.531 51.5324 143.58 57.4693 157.324 57.2338L157.29 55.2341C144.158 55.4591 132.547 49.7868 123.329 42.5248C114.109 35.2616 107.363 26.4682 103.989 20.6189L102.256 21.6183ZM157.274 57.2334C163.25 57.4318 177.909 55.1149 189.419 44.298L188.049 42.8406C177.018 53.2082 162.923 55.4198 157.34 55.2345L157.274 57.2334ZM189.389 44.325C196.275 38.357 205.728 29.7798 216.822 22.6803C227.919 15.5793 240.551 10.0295 253.755 10.0295V8.0295C240.003 8.0295 226.987 13.8011 215.744 20.9957C204.499 28.1919 194.92 36.8847 188.079 42.8137L189.389 44.325ZM253.755 10.0295C267.023 10.0295 276.376 13.8663 286.945 17.8718C297.528 21.8829 309.226 26.0137 326.98 26.3637L327.02 24.3641C309.607 24.0208 298.162 19.9844 287.653 16.0016C277.13 12.0132 267.444 8.0295 253.755 8.0295V10.0295Z" fill="white"/>
<path opacity="0.16" d="M256.573 17.4876C261.266 17.4876 265.146 13.8382 265.146 9.24379C265.146 4.64944 261.266 1 256.573 1C251.881 1 248 4.64944 248 9.24379C248 13.8382 251.881 17.4876 256.573 17.4876Z" stroke="white" stroke-width="2"/>
<g filter="url(#filter0_d)">
<ellipse cx="256.574" cy="9.24502" rx="4.41765" ry="4.22558" fill="white"/>
<path d="M258.991 9.24502C258.991 10.3913 257.993 11.4706 256.574 11.4706C255.154 11.4706 254.156 10.3913 254.156 9.24502C254.156 8.09872 255.154 7.01944 256.574 7.01944C257.993 7.01944 258.991 8.09872 258.991 9.24502Z" stroke="white" stroke-width="4"/>
</g>
<defs>
<filter id="filter0_d" x="250.156" y="4.01944" width="12.8353" height="12.4512" filterUnits="userSpaceOnUse" color-interpolation-filters="sRGB">
<feFlood flood-opacity="0" result="BackgroundImageFix"/>
<feColorMatrix in="SourceAlpha" type="matrix" values="0 0 0 0 0 0 0 0 0 0 0 0 0 0 0 0 0 0 127 0"/>
<feOffset dy="1"/>
<feGaussianBlur stdDeviation="1"/>
<feColorMatrix type="matrix" values="0 0 0 0 0.215686 0 0 0 0 0.317647 0 0 0 0 1 0 0 0 0.2 0"/>
<feBlend mode="normal" in2="BackgroundImageFix" result="effect1_dropShadow"/>
<feBlend mode="normal" in="SourceGraphic" in2="effect1_dropShadow" result="shape"/>
</filter>
</defs>
</svg>
